<svg xmlns="http://www.w3.org/2000/svg" viewBox="0 0 900 260" width="900" height="260">
  <rect width="900" height="260" fill="#0d1117" rx="10"/>

  <!-- left doc -->
  <rect x="80" y="30" width="200" height="190" rx="6" fill="#21262d" stroke="#30363d" stroke-width="1.5"/>
  <path d="M240,30 L280,70 L240,70 Z" fill="#30363d"/>
  <rect x="96" y="48" width="110" height="12" rx="3" fill="#8b949e" opacity="0.8"/>
  <rect x="96" y="76" width="160" height="7" rx="2" fill="#484f58" opacity="0.5"/>
  <rect x="96" y="90" width="140" height="7" rx="2" fill="#484f58" opacity="0.5"/>
  <rect x="96" y="104" width="155" height="7" rx="2" fill="#484f58" opacity="0.5"/>
  <line x1="96" y1="126" x2="264" y2="126" stroke="#30363d" stroke-width="1"/>
  <rect x="96" y="140" width="90" height="12" rx="3" fill="#8b949e" opacity="0.8"/>
  <rect x="96" y="168" width="160" height="7" rx="2" fill="#484f58" opacity="0.5"/>
  <rect x="96" y="182" width="130" height="7" rx="2" fill="#484f58" opacity="0.5"/>
  <rect x="96" y="196" width="148" height="7" rx="2" fill="#484f58" opacity="0.5"/>
  <text x="180" y="240" text-anchor="middle" font-family="Arial, sans-serif" font-size="14" font-weight="bold" fill="#6e7681" letter-spacing="3">OLD</text>

  <!-- arrow -->
  <line x1="310" y1="125" x2="370" y2="125" stroke="#58a6ff" stroke-width="3" stroke-linecap="round"/>
  <polygon points="370,117 388,125 370,133" fill="#58a6ff"/>
  <text x="350" y="112" text-anchor="middle" font-family="Courier New, monospace" font-size="12" fill="#58a6ff">diff</text>

  <!-- right doc -->
  <rect x="420" y="30" width="200" height="190" rx="6" fill="#21262d" stroke="#30363d" stroke-width="1.5"/>
  <path d="M580,30 L620,70 L580,70 Z" fill="#30363d"/>
  <rect x="436" y="48" width="110" height="12" rx="3" fill="#8b949e" opacity="0.8"/>
  <rect x="432" y="73" width="176" height="18" rx="4" fill="#d29922" opacity="0.2"/>
  <rect x="436" y="76" width="160" height="7" rx="2" fill="#d29922" opacity="0.9"/>
  <rect x="436" y="90" width="140" height="7" rx="2" fill="#484f58" opacity="0.5"/>
  <rect x="436" y="104" width="155" height="7" rx="2" fill="#484f58" opacity="0.5"/>
  <line x1="436" y1="126" x2="604" y2="126" stroke="#30363d" stroke-width="1"/>
  <rect x="436" y="140" width="90" height="12" rx="3" fill="#8b949e" opacity="0.8"/>
  <rect x="436" y="168" width="160" height="7" rx="2" fill="#484f58" opacity="0.5"/>
  <rect x="436" y="182" width="130" height="7" rx="2" fill="#484f58" opacity="0.5"/>
  <rect x="436" y="196" width="148" height="7" rx="2" fill="#484f58" opacity="0.5"/>
  <text x="520" y="240" text-anchor="middle" font-family="Arial, sans-serif" font-size="14" font-weight="bold" fill="#6e7681" letter-spacing="3">NEW</text>

  <!-- modified indicator -->
  <circle cx="408" cy="85" r="8" fill="#d29922"/>
  <text x="408" y="90" text-anchor="middle" font-family="Courier New, monospace" font-size="14" font-weight="bold" fill="#0d1117">~</text>

  <!-- added indicator -->
  <circle cx="408" cy="210" r="8" fill="#3fb950"/>
  <text x="408" y="215" text-anchor="middle" font-family="Courier New, monospace" font-size="14" font-weight="bold" fill="#0d1117">+</text>

  <!-- section labels -->
  <g font-family="Arial, sans-serif">
    <path d="M660,46 Q652,46 652,54 L652,120 Q652,128 660,128" fill="none" stroke="#d29922" stroke-width="1.8"/>
    <text x="665" y="82" font-size="11" fill="#d29922" font-weight="bold">sec 1</text>
    <text x="665" y="97" font-size="10" fill="#d29922">modified</text>

    <path d="M660,142 Q652,142 652,150 L652,198 Q652,206 660,206" fill="none" stroke="#8b949e" stroke-width="1.5"/>
    <text x="665" y="168" font-size="11" fill="#8b949e" font-weight="bold">sec 2</text>
    <text x="665" y="183" font-size="10" fill="#8b949e">unchanged</text>

    <path d="M660,210 Q652,210 652,218 L652,226 Q652,234 660,234" fill="none" stroke="#3fb950" stroke-width="1.8"/>
    <text x="665" y="220" font-size="11" fill="#3fb950" font-weight="bold">sec 3</text>
    <text x="665" y="235" font-size="10" fill="#3fb950">added</text>
  </g>

  <!-- bottom title -->
  <text x="450" y="254" text-anchor="middle" font-family="Arial, sans-serif" font-size="13" fill="#8b949e" letter-spacing="0.5">Markdown Section-Level Semantic Diff</text>
</svg>
